<svg xmlns="http://www.w3.org/2000/svg" viewBox="0 0 512 512" width="512" height="512" role="img" aria-label="USB endoscope">
  <defs>
    <linearGradient id="bg" x1="0" y1="0" x2="0" y2="1">
      <stop offset="0" stop-color="#15243d"/>
      <stop offset="1" stop-color="#0a0f1c"/>
    </linearGradient>
    <linearGradient id="cbl" x1="0" y1="1" x2="1" y2="0">
      <stop offset="0" stop-color="#0284c7"/>
      <stop offset="1" stop-color="#38bdf8"/>
    </linearGradient>
    <radialGradient id="lens" cx="0.36" cy="0.32" r="0.9">
      <stop offset="0" stop-color="#bae6fd"/>
      <stop offset="0.5" stop-color="#0ea5e9"/>
      <stop offset="1" stop-color="#06293f"/>
    </radialGradient>
  </defs>
  <rect width="512" height="512" rx="104" fill="url(#bg)"/>
  <path d="M170 430 C 150 356, 152 322, 214 296 C 238 286, 250 274, 255 260"
        fill="none" stroke="url(#cbl)" stroke-width="34" stroke-linecap="round"/>
  <circle cx="256" cy="200" r="96" fill="#0a1120" stroke="url(#cbl)" stroke-width="16"/>
  <g fill="#dbeafe">
    <circle cx="256" cy="126" r="11"/>
    <circle cx="322" cy="200" r="11"/>
    <circle cx="256" cy="274" r="11"/>
    <circle cx="190" cy="200" r="11"/>
    <circle cx="303" cy="153" r="9"/>
    <circle cx="303" cy="247" r="9"/>
    <circle cx="209" cy="247" r="9"/>
    <circle cx="209" cy="153" r="9"/>
  </g>
  <circle cx="256" cy="200" r="58" fill="url(#lens)"/>
  <circle cx="256" cy="200" r="58" fill="none" stroke="#0a1120" stroke-width="7"/>
  <circle cx="235" cy="180" r="17" fill="#eff6ff" opacity="0.92"/>
</svg>
